<svg width="300" height="300" viewBox="0 0 300 300" fill="none" xmlns="http://www.w3.org/2000/svg">
<g clip-path="url(#clip0)">
<path d="M149.995 0.00100708C67.156 0.00100708 0 67.16 0 149.999C0 232.838 67.156 299.996 149.995 299.996C232.834 299.996 299.998 232.835 299.998 149.999C299.997 67.157 232.834 0.00100708 149.995 0.00100708ZM70.75 226.844C66.769 226.844 63.545 223.623 63.545 219.642V80.353C63.545 76.374 66.769 73.151 70.75 73.151H229.247C233.228 73.151 236.452 76.375 236.452 80.353V157.434H225.657H219.51V89.834H80.323V182.861H88.272L120.391 132.774L141.856 166.242L152.516 182.862H161.757L146.476 159.035L156.435 143.505L181.676 182.86H191.853V191.235V207.647V218.021H202.227H215.28V226.845H70.75V226.844ZM207.264 121.042C207.264 129.274 200.588 135.95 192.356 135.95C184.124 135.95 177.448 129.274 177.448 121.042C177.448 112.81 184.124 106.134 192.356 106.134C200.588 106.134 207.264 112.813 207.264 121.042ZM242.067 207.646V231.069H225.66V226.844V207.646H202.232V191.234H225.66V167.811H236.455H242.068V191.234H265.493V207.646H242.067Z" fill="black"/>
</g>
<defs>
<clipPath id="clip0">
<rect width="299.998" height="299.998" fill="white"/>
</clipPath>
</defs>
</svg>
