<?xml version="1.0" encoding="UTF-8"?>
<svg xmlns="http://www.w3.org/2000/svg" xmlns:xlink="http://www.w3.org/1999/xlink" width="60pt" height="60pt" viewBox="0 0 60 60" version="1.1">
<g id="surface1">
<path style=" stroke:none;fill-rule:nonzero;fill:#FFFFFF;fill-opacity:1;" d="M 29.605469 3.949219 L 19.738281 13.816406 L 39.472656 13.816406 Z M 15.035156 7.894531 C 13.523438 7.894531 12.171875 8.734375 11.503906 10.078125 L 7.894531 17.300781 L 7.894531 47.367188 C 7.894531 49.550781 9.660156 51.316406 11.84375 51.316406 L 47.367188 51.316406 C 49.550781 51.316406 51.316406 49.550781 51.316406 47.367188 L 51.316406 17.300781 L 47.707031 10.078125 C 47.035156 8.726563 45.6875 7.894531 44.175781 7.894531 L 39.132813 7.894531 L 43.082031 11.84375 L 44.175781 11.84375 L 47.136719 17.761719 L 12.074219 17.761719 L 15.035156 11.84375 L 16.128906 11.84375 L 20.074219 7.894531 Z M 23.683594 21.710938 L 35.527344 21.710938 C 36.613281 21.710938 37.5 22.597656 37.5 23.683594 C 37.5 24.769531 36.613281 25.65625 35.527344 25.65625 L 23.683594 25.65625 C 22.597656 25.65625 21.710938 24.769531 21.710938 23.683594 C 21.710938 22.597656 22.597656 21.710938 23.683594 21.710938 Z "/>
</g>
</svg>
