<?xml version="1.0" encoding="UTF-8"?>
<svg xmlns="http://www.w3.org/2000/svg" xmlns:xlink="http://www.w3.org/1999/xlink" width="60pt" height="60pt" viewBox="0 0 60 60" version="1.1">
<g id="surface1">
<path style=" stroke:none;fill-rule:nonzero;fill:#FFFFFF;fill-opacity:1;" d="M 21.710938 3.949219 C 19.527344 3.949219 17.761719 5.710938 17.761719 7.894531 L 17.761719 39.472656 C 17.761719 41.65625 19.527344 43.421875 21.710938 43.421875 L 47.367188 43.421875 C 49.550781 43.421875 51.316406 41.65625 51.316406 39.472656 L 51.316406 16.777344 C 51.316406 16.253906 51.109375 15.75 50.738281 15.382813 L 39.882813 4.527344 C 39.511719 4.15625 39.011719 3.949219 38.488281 3.949219 Z M 37.5 7.710938 L 47.554688 17.761719 L 39.472656 17.761719 C 38.386719 17.761719 37.5 16.875 37.5 15.789063 Z M 11.84375 13.816406 C 9.660156 13.816406 7.894531 15.582031 7.894531 17.761719 L 7.894531 49.34375 C 7.894531 51.523438 9.660156 53.289063 11.84375 53.289063 L 37.5 53.289063 C 39.683594 53.289063 41.449219 51.523438 41.449219 49.34375 L 41.449219 47.367188 L 21.710938 47.367188 C 17.355469 47.367188 13.816406 43.828125 13.816406 39.472656 L 13.816406 13.816406 Z "/>
</g>
</svg>
