<?xml version="1.0" encoding="UTF-8"?>
<svg xmlns="http://www.w3.org/2000/svg" xmlns:xlink="http://www.w3.org/1999/xlink" width="100pt" height="100pt" viewBox="0 0 100 100" version="1.1">
<g id="surface1">
<path style=" stroke:none;fill-rule:nonzero;fill:#FFFFFF;fill-opacity:1;" d="M 15.128906 3.96875 C 4.03125 3.96875 0 12.5 0 18.230469 C 0 22.722656 1.699219 28.824219 9.796875 32.429688 C 11.167969 33.039063 12.609375 33.582031 14.074219 34.164063 C 20.832031 36.847656 27.855469 39.628906 33.917969 48.550781 C 27.871094 57.515625 20.878906 60.359375 14.074219 63.058594 C 12.601563 63.640625 11.167969 64.183594 9.796875 64.792969 C 1.699219 68.40625 0 74.496094 0 78.992188 C 0 84.71875 4.03125 93.253906 15.128906 93.253906 C 26.746094 93.253906 30.628906 83.21875 30.628906 78.621094 C 30.628906 75.566406 29.304688 71.289063 26.722656 69.011719 C 26.949219 68.832031 27.296875 68.59375 27.902344 68.265625 C 31.140625 66.523438 44.726563 58.300781 45.449219 57.851563 L 98.398438 18.789063 C 98.886719 18.421875 99.191406 17.847656 99.207031 17.238281 C 99.222656 16.625 98.933594 16.011719 98.460938 15.625 C 95.53125 13.230469 92.191406 12.027344 88.480469 12.027344 C 81.683594 12.027344 76.148438 16.167969 75.953125 16.308594 L 44.519531 38.816406 C 42.828125 37.792969 30.988281 30.613281 27.902344 28.957031 C 27.289063 28.628906 26.949219 28.382813 26.722656 28.210938 C 29.304688 25.933594 30.628906 21.65625 30.628906 18.601563 C 30.628906 14.003906 26.746094 3.96875 15.128906 3.96875 Z M 14.570313 11.410156 C 18.816406 11.410156 22.214844 14.292969 22.695313 18.292969 C 22.964844 20.507813 22.335938 22.746094 20.894531 24.367188 C 19.601563 25.824219 17.839844 26.601563 15.933594 26.601563 C 11.804688 26.601563 8 23.296875 7.503906 19.222656 C 7.261719 17.191406 7.867188 15.246094 9.175781 13.765625 C 10.507813 12.261719 12.484375 11.410156 14.570313 11.410156 Z M 45.636719 45.449219 C 46.835938 45.449219 47.804688 46.417969 47.804688 47.617188 C 47.804688 48.820313 46.835938 49.789063 45.636719 49.789063 C 44.433594 49.789063 43.464844 48.820313 43.464844 47.617188 C 43.464844 46.417969 44.433594 45.449219 45.636719 45.449219 Z M 60.640625 50.59375 L 47.308594 60.390625 L 75.894531 80.914063 C 76.125 81.09375 81.683594 85.195313 88.480469 85.195313 C 92.183594 85.195313 95.53125 83.992188 98.460938 81.597656 C 98.933594 81.210938 99.222656 80.597656 99.207031 79.984375 C 99.191406 79.371094 98.886719 78.800781 98.398438 78.433594 Z M 15.933594 70.621094 C 17.839844 70.621094 19.601563 71.398438 20.894531 72.855469 C 22.328125 74.472656 22.964844 76.707031 22.695313 78.929688 C 22.214844 82.929688 18.808594 85.8125 14.570313 85.8125 C 12.484375 85.8125 10.507813 84.960938 9.175781 83.457031 C 7.867188 81.976563 7.261719 80.023438 7.503906 78 C 7.992188 73.917969 11.804688 70.621094 15.933594 70.621094 Z "/>
</g>
</svg>
