<?xml version="1.0" encoding="UTF-8"?>
<svg xmlns="http://www.w3.org/2000/svg" xmlns:xlink="http://www.w3.org/1999/xlink" width="48pt" height="48pt" viewBox="0 0 48 48" version="1.1">
<g id="surface1">
<path style=" stroke:none;fill-rule:nonzero;fill:#FFFFFF;fill-opacity:1;" d="M 12 4 C 9.796875 4 8 5.796875 8 8 L 8 40 C 8 42.203125 9.796875 44 12 44 L 25.664063 44 L 27.304688 42.351563 L 29.554688 40.078125 L 29.5625 40.039063 L 27.75 38.210938 C 25.4375 35.882813 25.4375 32.09375 27.75 29.765625 C 28.882813 28.625 30.390625 27.992188 32 27.992188 C 33.609375 27.992188 35.125 28.625 36.25 29.765625 L 38.03125 31.554688 L 40 29.5625 L 40 17.65625 C 40 16.59375 39.578125 15.578125 38.828125 14.828125 L 29.171875 5.171875 C 28.421875 4.421875 27.40625 4 26.34375 4 Z M 26 7 L 37 18 L 26 18 Z M 32 31.992188 C 31.484375 31.992188 30.976563 32.1875 30.585938 32.585938 C 29.8125 33.359375 29.8125 34.617188 30.585938 35.390625 L 35.1875 40.015625 L 30.578125 44.601563 C 29.804688 45.382813 29.804688 46.632813 30.578125 47.40625 C 31.359375 48.195313 32.625 48.195313 33.40625 47.40625 L 37.992188 42.84375 L 42.53125 47.40625 C 43.304688 48.195313 44.578125 48.195313 45.351563 47.40625 C 46.125 46.632813 46.125 45.382813 45.351563 44.601563 L 40.8125 40.03125 L 45.4375 35.414063 C 46.210938 34.640625 46.210938 33.382813 45.4375 32.609375 C 44.664063 31.820313 43.390625 31.820313 42.617188 32.609375 L 38 37.203125 L 33.40625 32.585938 C 33.023438 32.1875 32.515625 31.992188 32 31.992188 Z "/>
</g>
</svg>
