<svg width="193" height="154" viewBox="0 0 193 154" fill="none" xmlns="http://www.w3.org/2000/svg">
<path d="M192.5 14C192.5 6.26801 186.232 0 178.5 0H119.875C112.143 0 105.875 6.26801 105.875 14V38.5H134.75L96.25 77L57.75 38.5H86.625V14C86.625 6.26801 80.357 0 72.625 0H14C6.26801 0 0 6.26801 0 14V140C0 147.732 6.26801 154 14 154H178.5C186.232 154 192.5 147.732 192.5 140V14ZM154 120.75C154 128.482 147.732 134.75 140 134.75H52.5C44.768 134.75 38.5 128.482 38.5 120.75V119.875C38.5 112.143 44.768 105.875 52.5 105.875H140C147.732 105.875 154 112.143 154 119.875V120.75Z" fill="black"/>
</svg>
