<svg width="689" height="689" viewBox="0 0 689 689" fill="none" xmlns="http://www.w3.org/2000/svg">
<line x1="93.5" y1="-6.55671e-08" x2="93.5" y2="689" stroke="#16161A" stroke-width="3"/>
<line x1="202.5" y1="-6.55671e-08" x2="202.5" y2="689" stroke="#16161A" stroke-width="3"/>
<line x1="311.5" y1="-6.55671e-08" x2="311.5" y2="689" stroke="#16161A" stroke-width="3"/>
<line x1="420.5" y1="-6.55671e-08" x2="420.5" y2="689" stroke="#16161A" stroke-width="3"/>
<line x1="529.5" y1="-6.55671e-08" x2="529.5" y2="689" stroke="#16161A" stroke-width="3"/>
<line x1="638.5" y1="-6.55671e-08" x2="638.5" y2="689" stroke="#16161A" stroke-width="3"/>
<line x1="689" y1="73.5" y2="73.5" stroke="#16161A" stroke-width="3"/>
<line x1="689" y1="182.5" y2="182.5" stroke="#16161A" stroke-width="3"/>
<line x1="689" y1="291.5" y2="291.5" stroke="#16161A" stroke-width="3"/>
<line x1="689" y1="400.5" y2="400.5" stroke="#16161A" stroke-width="3"/>
<line x1="689" y1="509.5" y2="509.5" stroke="#16161A" stroke-width="3"/>
<line x1="689" y1="618.5" y2="618.5" stroke="#16161A" stroke-width="3"/>
<circle cx="92" cy="72" r="8" fill="#16161A"/>
<circle cx="92" cy="181" r="8" fill="#16161A"/>
<circle cx="92" cy="290" r="8" fill="#16161A"/>
<circle cx="92" cy="399" r="8" fill="#16161A"/>
<circle cx="92" cy="508" r="8" fill="#16161A"/>
<circle cx="92" cy="617" r="8" fill="#16161A"/>
<circle cx="201" cy="72" r="8" fill="#16161A"/>
<circle cx="201" cy="181" r="8" fill="#16161A"/>
<circle cx="201" cy="290" r="8" fill="#16161A"/>
<circle cx="201" cy="399" r="8" fill="#16161A"/>
<circle cx="201" cy="508" r="8" fill="#16161A"/>
<circle cx="201" cy="617" r="8" fill="#16161A"/>
<circle cx="310" cy="72" r="8" fill="#16161A"/>
<circle cx="310" cy="181" r="8" fill="#16161A"/>
<circle cx="310" cy="290" r="8" fill="#16161A"/>
<circle cx="310" cy="399" r="8" fill="#16161A"/>
<circle cx="310" cy="508" r="8" fill="#16161A"/>
<circle cx="310" cy="617" r="8" fill="#16161A"/>
<circle cx="419" cy="72" r="8" fill="#16161A"/>
<circle cx="419" cy="181" r="8" fill="#16161A"/>
<circle cx="419" cy="290" r="8" fill="#16161A"/>
<circle cx="419" cy="399" r="8" fill="#16161A"/>
<circle cx="419" cy="508" r="8" fill="#16161A"/>
<circle cx="419" cy="617" r="8" fill="#16161A"/>
<circle cx="528" cy="72" r="8" fill="#16161A"/>
<circle cx="528" cy="181" r="8" fill="#16161A"/>
<circle cx="528" cy="290" r="8" fill="#16161A"/>
<circle cx="528" cy="399" r="8" fill="#16161A"/>
<circle cx="528" cy="508" r="8" fill="#16161A"/>
<circle cx="528" cy="617" r="8" fill="#16161A"/>
<circle cx="637" cy="72" r="8" fill="#16161A"/>
<circle cx="637" cy="181" r="8" fill="#16161A"/>
<circle cx="637" cy="290" r="8" fill="#16161A"/>
<circle cx="637" cy="399" r="8" fill="#16161A"/>
<circle cx="637" cy="508" r="8" fill="#16161A"/>
<circle cx="637" cy="617" r="8" fill="#16161A"/>
</svg>
