<?xml version="1.0" encoding="UTF-8"?>
<svg xmlns="http://www.w3.org/2000/svg" xmlns:xlink="http://www.w3.org/1999/xlink" width="60pt" height="60pt" viewBox="0 0 60 60" version="1.1">
<g id="surface1">
<path style=" stroke:none;fill-rule:nonzero;fill:#FFFFFF;fill-opacity:1;" d="M 9.867188 7.894531 C 8.78125 7.894531 7.894531 8.78125 7.894531 9.867188 L 7.894531 49.34375 C 7.894531 50.429688 8.78125 51.316406 9.867188 51.316406 L 17.761719 51.316406 C 18.851563 51.316406 19.738281 50.429688 19.738281 49.34375 L 19.738281 9.867188 C 19.738281 8.78125 18.851563 7.894531 17.761719 7.894531 Z M 25.65625 7.894531 C 24.570313 7.894531 23.683594 8.78125 23.683594 9.867188 L 23.683594 49.34375 C 23.683594 50.429688 24.570313 51.316406 25.65625 51.316406 L 33.550781 51.316406 C 34.640625 51.316406 35.527344 50.429688 35.527344 49.34375 L 35.527344 9.867188 C 35.527344 8.78125 34.640625 7.894531 33.550781 7.894531 Z M 41.449219 7.894531 C 40.359375 7.894531 39.472656 8.78125 39.472656 9.867188 L 39.472656 49.34375 C 39.472656 50.429688 40.359375 51.316406 41.449219 51.316406 L 49.34375 51.316406 C 50.429688 51.316406 51.316406 50.429688 51.316406 49.34375 L 51.316406 9.867188 C 51.316406 8.78125 50.429688 7.894531 49.34375 7.894531 Z "/>
</g>
</svg>
