<?xml version="1.0" encoding="UTF-8"?>
<svg xmlns="http://www.w3.org/2000/svg" xmlns:xlink="http://www.w3.org/1999/xlink" width="48pt" height="48pt" viewBox="0 0 48 48" version="1.1">
<g id="surface1">
<path style=" stroke:none;fill-rule:nonzero;fill:#FFFFFF;fill-opacity:1;" d="M 16 4 C 13.789063 4 12 5.789063 12 8 L 12 10 C 12 11.101563 12.898438 12 14 12 C 15.101563 12 16 11.101563 16 10 L 16 8 L 36 8 L 36 40 L 16 40 L 16 36 C 16 34.21875 13.84375 33.328125 12.585938 34.59375 C 12.210938 34.960938 12 35.476563 12 36 L 12 40 C 12 42.210938 13.789063 44 16 44 L 36 44 C 38.210938 44 40 42.210938 40 40 L 40 8 C 40 5.789063 38.210938 4 36 4 Z M 10 16 C 7.8125 16 6 17.8125 6 20 L 6 26 L 2.375 26 C 1.320313 26 0.789063 27.28125 1.539063 28.03125 L 7.15625 33.65625 C 7.625 34.117188 8.382813 34.117188 8.84375 33.65625 L 14.46875 28.03125 C 15.210938 27.28125 14.679688 26 13.625 26 L 10 26 L 10 20 L 18 20 C 18.71875 20.007813 19.390625 19.632813 19.757813 19.007813 C 20.117188 18.382813 20.117188 17.617188 19.757813 16.992188 C 19.390625 16.367188 18.71875 15.992188 18 16 Z "/>
</g>
</svg>
