<svg width="105" height="131" viewBox="0 0 105 131" fill="none" xmlns="http://www.w3.org/2000/svg">
<path d="M103.068 29.4266C103.077 29.5201 103.082 29.6151 103.082 29.7114V119.183C103.082 125.148 98.2305 130 92.2651 130H12.7348C6.76949 130 1.91779 125.148 1.91779 119.183V11.817C1.91779 5.85171 6.76949 1 12.7348 1H74.3708C74.4677 1 74.5633 1.00502 74.6573 1.01449C74.735 1.02226 74.8064 1.03444 74.8481 1.04175C74.8547 1.04264 74.866 1.04418 74.879 1.04619C74.8945 1.04859 74.9155 1.05211 74.94 1.05717C75.0204 1.07356 75.0937 1.09276 75.1561 1.11062C75.1659 1.11313 75.1806 1.11701 75.1982 1.12222L75.2057 1.12443L75.2056 1.12446C75.2868 1.14921 75.3598 1.17627 75.4207 1.20035C75.4213 1.20055 75.4218 1.20075 75.4224 1.20096C75.4336 1.20504 75.4503 1.2113 75.4702 1.21958L75.4713 1.22001C75.5445 1.25063 75.6099 1.2825 75.6625 1.30922C75.6731 1.31418 75.6938 1.32401 75.7176 1.33656L75.7217 1.33873C75.7945 1.37757 75.8586 1.41792 75.8971 1.44236C75.9018 1.44509 75.9092 1.4495 75.9175 1.45453C75.9288 1.4614 75.9444 1.47109 75.9624 1.48309L75.9637 1.48397C76.0279 1.5269 76.0859 1.57187 76.1162 1.59548C76.1167 1.59587 76.1172 1.59625 76.1177 1.59662L76.1189 1.59742L76.1194 1.59776C76.1292 1.60481 76.1563 1.62445 76.1873 1.64979L76.1893 1.65142C76.2508 1.70199 76.3061 1.75247 76.3552 1.79986C76.3656 1.8092 76.3799 1.82239 76.3961 1.83867L102.243 27.686C102.257 27.6997 102.268 27.7117 102.277 27.7207C102.325 27.7704 102.378 27.8285 102.432 27.8939C102.456 27.9236 102.474 27.949 102.481 27.9576L102.482 27.9588C102.51 27.9949 102.555 28.053 102.599 28.1193L102.603 28.1252C102.614 28.1416 102.622 28.1557 102.628 28.1656L102.637 28.1793C102.665 28.224 102.704 28.2869 102.743 28.3586L102.746 28.3659L102.75 28.3734C102.758 28.3885 102.764 28.4012 102.768 28.4097L102.77 28.4124C102.798 28.4686 102.831 28.5369 102.863 28.6135L102.869 28.6272L102.874 28.6411C102.877 28.6474 102.879 28.653 102.88 28.6577C102.907 28.7241 102.933 28.7964 102.957 28.8741C102.962 28.8917 102.966 28.9066 102.969 28.9175C102.97 28.9206 102.971 28.9235 102.972 28.9263C102.99 28.9918 103.01 29.0666 103.026 29.1484C103.031 29.1712 103.034 29.1905 103.036 29.2043C103.038 29.2143 103.039 29.2233 103.04 29.2289L103.04 29.23C103.046 29.2682 103.06 29.3449 103.068 29.4266ZM103.068 29.4266C103.068 29.4272 103.068 29.4278 103.068 29.4284L102.073 29.5252L103.068 29.4249C103.068 29.4255 103.068 29.4261 103.068 29.4266ZM75.9048 1.4472L75.9034 1.44635L75.9048 1.4472ZM75.9048 1.4472C75.907 1.44863 75.9095 1.45023 75.9122 1.45196L75.9122 1.45193L75.9048 1.4472ZM75.1781 1.11699L75.1736 1.1157C75.1751 1.11612 75.1766 1.11655 75.1781 1.11699ZM77.2348 21.7583V10.7781L93.304 26.8474H82.3239C79.5187 26.8474 77.2348 24.5637 77.2348 21.7583ZM92.2651 124.272H12.7348C9.92965 124.272 7.64577 121.988 7.64577 119.183V11.817C7.64577 9.01167 9.92965 6.72798 12.7348 6.72798H71.5068V21.7583C71.5068 27.7236 76.3585 32.5753 82.3239 32.5753H97.3542V119.183C97.3542 121.988 95.0703 124.272 92.2651 124.272Z" fill="black" stroke="black" stroke-width="2"/>
<path d="M48 104C48 106.209 49.7909 108 52 108C54.2091 108 56 106.209 56 104H48ZM54.8284 42.1716C53.2663 40.6095 50.7337 40.6095 49.1716 42.1716L23.7157 67.6274C22.1536 69.1895 22.1536 71.7222 23.7157 73.2843C25.2778 74.8464 27.8105 74.8464 29.3726 73.2843L52 50.6569L74.6274 73.2843C76.1895 74.8464 78.7222 74.8464 80.2843 73.2843C81.8464 71.7222 81.8464 69.1895 80.2843 67.6274L54.8284 42.1716ZM56 104V45H48V104H56Z" fill="black"/>
</svg>
