<svg width="53" height="43" viewBox="0 0 53 43" fill="none" xmlns="http://www.w3.org/2000/svg">
<path d="M48.8307 15.1191C48.8333 11.586 45.9764 8.72917 42.4523 8.72917L26.4974 8.73813L20.1164 2.35718H7.35454C5.59249 2.35718 4.16406 3.7856 4.16406 5.54765V8.72917V15.1191" stroke="#6F6F6F" stroke-width="3" stroke-linecap="round" stroke-linejoin="round"/>
<path fill-rule="evenodd" clip-rule="evenodd" d="M1.96634 19.0808L6.14817 35.8093C6.85828 38.65 9.41058 40.6428 12.3386 40.6428H40.6595C43.5877 40.6428 46.1401 38.6498 46.85 35.8089L51.0321 19.0746C51.4593 17.3651 50.4199 15.633 48.7104 15.2058C48.4573 15.1425 48.1973 15.1106 47.9364 15.1106L5.06112 15.1166C3.29907 15.1169 1.87109 16.5455 1.87109 18.3075C1.87109 18.5682 1.90312 18.8279 1.96634 19.0808V19.0808Z" stroke="#6F6F6F" stroke-width="3" stroke-linecap="round" stroke-linejoin="round"/>
</svg>
