<?xml version="1.0" encoding="UTF-8"?>
<svg xmlns="http://www.w3.org/2000/svg" xmlns:xlink="http://www.w3.org/1999/xlink" width="100pt" height="100pt" viewBox="0 0 100 100" version="1.1">
<g id="surface1">
<path style=" stroke:none;fill-rule:nonzero;fill:#FFFFFF;fill-opacity:1;" d="M 30.753906 0 C 29.109375 0 27.777344 1.332031 27.777344 2.976563 L 27.777344 14.882813 C 27.777344 16.523438 29.109375 17.855469 30.753906 17.855469 L 56.546875 17.855469 C 58.191406 17.855469 59.523438 16.523438 59.523438 14.882813 L 59.523438 2.976563 C 59.523438 1.332031 58.191406 0 56.546875 0 Z M 11.90625 3.96875 C 8.625 3.96875 5.953125 6.640625 5.953125 9.921875 L 5.953125 85.316406 C 5.953125 88.597656 8.625 91.269531 11.90625 91.269531 L 29.761719 91.269531 L 29.761719 81.347656 L 15.871094 81.347656 L 15.871094 13.890625 L 23.808594 13.890625 L 23.808594 3.96875 Z M 63.492188 3.96875 L 63.492188 13.890625 L 71.429688 13.890625 L 71.429688 25.792969 L 81.347656 25.792969 L 81.347656 9.921875 C 81.347656 6.640625 78.675781 3.96875 75.398438 3.96875 Z M 35.714844 29.761719 C 34.621094 29.761719 33.730469 30.652344 33.730469 31.746094 L 33.730469 97.222656 C 33.730469 98.324219 34.621094 99.207031 35.714844 99.207031 L 91.269531 99.207031 C 92.371094 99.207031 93.253906 98.324219 93.253906 97.222656 L 93.253906 31.746094 C 93.253906 30.652344 92.371094 29.761719 91.269531 29.761719 Z M 47.617188 45.636719 L 81.347656 45.636719 C 82.449219 45.636719 83.332031 46.527344 83.332031 47.617188 C 83.332031 48.710938 82.449219 49.601563 81.347656 49.601563 L 47.617188 49.601563 C 46.527344 49.601563 45.636719 48.710938 45.636719 47.617188 C 45.636719 46.527344 46.527344 45.636719 47.617188 45.636719 Z M 47.617188 57.539063 L 71.429688 57.539063 C 72.527344 57.539063 73.414063 58.421875 73.414063 59.523438 C 73.414063 60.625 72.527344 61.507813 71.429688 61.507813 L 47.617188 61.507813 C 46.527344 61.507813 45.636719 60.625 45.636719 59.523438 C 45.636719 58.421875 46.527344 57.539063 47.617188 57.539063 Z M 47.617188 69.445313 L 81.347656 69.445313 C 82.449219 69.445313 83.332031 70.328125 83.332031 71.429688 C 83.332031 72.527344 82.449219 73.414063 81.347656 73.414063 L 47.617188 73.414063 C 46.527344 73.414063 45.636719 72.527344 45.636719 71.429688 C 45.636719 70.328125 46.527344 69.445313 47.617188 69.445313 Z M 47.617188 81.347656 L 71.429688 81.347656 C 72.527344 81.347656 73.414063 82.234375 73.414063 83.332031 C 73.414063 84.433594 72.527344 85.316406 71.429688 85.316406 L 47.617188 85.316406 C 46.527344 85.316406 45.636719 84.433594 45.636719 83.332031 C 45.636719 82.234375 46.527344 81.347656 47.617188 81.347656 Z "/>
</g>
</svg>
