<?xml version="1.0" encoding="UTF-8"?>
<svg xmlns="http://www.w3.org/2000/svg" xmlns:xlink="http://www.w3.org/1999/xlink" width="100pt" height="100pt" viewBox="0 0 100 100" version="1.1">
<g id="surface1">
<path style=" stroke:none;fill-rule:nonzero;fill:#FFFFFF;fill-opacity:1;" d="M 5.953125 9.921875 C 2.582031 9.921875 0 12.5 0 15.871094 L 0 73.414063 C 0 76.785156 2.582031 79.363281 5.953125 79.363281 L 93.253906 79.363281 C 96.625 79.363281 99.207031 76.785156 99.207031 73.414063 L 99.207031 15.871094 C 99.207031 12.5 96.625 9.921875 93.253906 9.921875 Z M 5.953125 13.890625 L 93.253906 13.890625 C 94.449219 13.890625 95.238281 14.679688 95.238281 15.871094 L 95.238281 63.492188 L 3.96875 63.492188 L 3.96875 15.871094 C 3.96875 14.679688 4.757813 13.890625 5.953125 13.890625 Z M 49.601563 69.257813 C 50.796875 69.257813 51.773438 70.234375 51.773438 71.429688 C 51.773438 72.621094 50.796875 73.597656 49.601563 73.597656 C 48.410156 73.597656 47.433594 72.621094 47.433594 71.429688 C 47.433594 70.234375 48.410156 69.257813 49.601563 69.257813 Z M 39.867188 83.332031 L 39.496094 86.125 C 39.101563 87.90625 37.496094 89.285156 35.714844 89.285156 L 33.730469 89.285156 C 32.535156 89.285156 31.746094 90.078125 31.746094 91.269531 C 31.746094 92.464844 32.535156 93.253906 33.730469 93.253906 L 65.476563 93.253906 C 66.667969 93.253906 67.460938 92.464844 67.460938 91.269531 C 67.460938 90.078125 66.667969 89.285156 65.476563 89.285156 L 63.492188 89.285156 C 61.710938 89.285156 60.105469 87.90625 59.710938 86.125 L 59.335938 83.332031 Z "/>
</g>
</svg>
