<?xml version="1.0" encoding="UTF-8"?>
<svg xmlns="http://www.w3.org/2000/svg" xmlns:xlink="http://www.w3.org/1999/xlink" width="52pt" height="52pt" viewBox="0 0 52 52" version="1.1">
<g id="surface1">
<path style=" stroke:none;fill-rule:nonzero;fill:#FFFFFF;fill-opacity:1;" d="M 37.425781 0 L 15.757813 0 C 12.496094 0 9.847656 2.648438 9.847656 5.910156 L 9.847656 45.304688 C 9.847656 48.566406 12.496094 51.210938 15.757813 51.210938 L 37.425781 51.210938 C 40.6875 51.210938 43.332031 48.566406 43.332031 45.304688 L 43.332031 5.910156 C 43.332031 2.648438 40.6875 0 37.425781 0 Z M 24.621094 1.96875 L 28.5625 1.96875 C 29.105469 1.96875 29.546875 2.410156 29.546875 2.953125 C 29.546875 3.5 29.105469 3.9375 28.5625 3.9375 L 24.621094 3.9375 C 24.074219 3.9375 23.636719 3.5 23.636719 2.953125 C 23.636719 2.410156 24.074219 1.96875 24.621094 1.96875 Z M 26.589844 48.804688 C 25.199219 48.804688 24.074219 47.679688 24.074219 46.289063 C 24.074219 44.894531 25.199219 43.773438 26.589844 43.773438 C 27.984375 43.773438 29.105469 44.894531 29.105469 46.289063 C 29.105469 47.679688 27.984375 48.804688 26.589844 48.804688 Z M 39.394531 40.378906 C 39.394531 40.925781 38.957031 41.363281 38.410156 41.363281 L 14.773438 41.363281 C 14.226563 41.363281 13.789063 40.925781 13.789063 40.378906 L 13.789063 6.894531 C 13.789063 6.347656 14.226563 5.910156 14.773438 5.910156 L 38.410156 5.910156 C 38.957031 5.910156 39.394531 6.347656 39.394531 6.894531 Z "/>
</g>
</svg>
