<?xml version="1.0" encoding="UTF-8"?>
<svg xmlns="http://www.w3.org/2000/svg" xmlns:xlink="http://www.w3.org/1999/xlink" width="64pt" height="64pt" viewBox="0 0 64 64" version="1.1">
<g id="surface1">
<path style=" stroke:none;fill-rule:nonzero;fill:#FFFFFF;fill-opacity:1;" d="M 20 8 C 18.953125 8 17.882813 8.367188 17.125 9.125 C 16.367188 9.882813 16 10.953125 16 12 L 16 52 C 16 53.046875 16.367188 54.117188 17.125 54.875 C 17.882813 55.632813 18.953125 56 20 56 L 44 56 C 45.046875 56 46.117188 55.632813 46.875 54.875 C 47.632813 54.117188 48 53.046875 48 52 L 48 12 C 48 10.953125 47.632813 9.882813 46.875 9.125 C 46.117188 8.367188 45.046875 8 44 8 Z M 20 12 L 44 12 L 44 52 L 20 52 Z M 32 14 C 30.898438 14 30 14.898438 30 16 C 30 17.101563 30.898438 18 32 18 C 33.101563 18 34 17.101563 34 16 C 34 14.898438 33.101563 14 32 14 Z M 28 46 L 28 50 L 36 50 L 36 46 Z "/>
</g>
</svg>
