<?xml version="1.0" encoding="UTF-8"?>
<svg xmlns="http://www.w3.org/2000/svg" xmlns:xlink="http://www.w3.org/1999/xlink" width="60pt" height="60pt" viewBox="0 0 60 60" version="1.1">
<g id="surface1">
<path style=" stroke:none;fill-rule:nonzero;fill:#FFFFFF;fill-opacity:1;" d="M 9.867188 7.894531 C 8.78125 7.894531 7.894531 8.78125 7.894531 9.867188 L 7.894531 17.761719 C 7.894531 18.851563 8.78125 19.738281 9.867188 19.738281 L 49.34375 19.738281 C 50.429688 19.738281 51.316406 18.851563 51.316406 17.761719 L 51.316406 9.867188 C 51.316406 8.78125 50.429688 7.894531 49.34375 7.894531 Z M 9.867188 23.683594 C 8.78125 23.683594 7.894531 24.570313 7.894531 25.65625 L 7.894531 33.550781 C 7.894531 34.640625 8.78125 35.527344 9.867188 35.527344 L 49.34375 35.527344 C 50.429688 35.527344 51.316406 34.640625 51.316406 33.550781 L 51.316406 25.65625 C 51.316406 24.570313 50.429688 23.683594 49.34375 23.683594 Z M 9.867188 39.472656 C 8.78125 39.472656 7.894531 40.359375 7.894531 41.449219 L 7.894531 49.34375 C 7.894531 50.429688 8.78125 51.316406 9.867188 51.316406 L 49.34375 51.316406 C 50.429688 51.316406 51.316406 50.429688 51.316406 49.34375 L 51.316406 41.449219 C 51.316406 40.359375 50.429688 39.472656 49.34375 39.472656 Z "/>
</g>
</svg>
